<svg xmlns="http://www.w3.org/2000/svg" width="480" height="480" viewBox="0 0 480 480" shape-rendering="geometricPrecision"><defs><pattern id="p" width="104" height="128" patternUnits="userSpaceOnUse"><g fill="#040519" fill-opacity="0.18"><rect x="48.68" y="0.68" width="6.64" height="6.64" rx="1.84"/><rect x="40.68" y="8.68" width="6.64" height="6.64" rx="1.84"/><rect x="48.68" y="8.68" width="6.64" height="6.64" rx="1.84"/><rect x="56.68" y="8.68" width="6.64" height="6.64" rx="1.84"/><rect x="48.68" y="16.68" width="6.64" height="6.64" rx="1.84"/><rect x="48.68" y="24.68" width="6.64" height="6.64" rx="1.84"/><rect x="40.68" y="32.68" width="6.64" height="6.64" rx="1.84"/><rect x="48.68" y="32.68" width="6.64" height="6.64" rx="1.84"/><rect x="56.68" y="32.68" width="6.64" height="6.64" rx="1.84"/><rect x="32.68" y="40.68" width="6.64" height="6.64" rx="1.84"/><rect x="40.68" y="40.68" width="6.64" height="6.64" rx="1.84"/><rect x="56.68" y="40.68" width="6.64" height="6.64" rx="1.84"/><rect x="64.68" y="40.68" width="6.64" height="6.64" rx="1.84"/><rect x="24.68" y="48.68" width="6.64" height="6.64" rx="1.84"/><rect x="32.68" y="48.68" width="6.64" height="6.64" rx="1.84"/><rect x="48.68" y="48.68" width="6.64" height="6.64" rx="1.84"/><rect x="64.68" y="48.68" width="6.64" height="6.64" rx="1.84"/><rect x="72.68" y="48.68" width="6.64" height="6.64" rx="1.84"/><rect x="32.68" y="56.68" width="6.64" height="6.64" rx="1.84"/><rect x="40.68" y="56.68" width="6.64" height="6.64" rx="1.84"/><rect x="56.68" y="56.68" width="6.64" height="6.64" rx="1.84"/><rect x="64.68" y="56.68" width="6.64" height="6.64" rx="1.84"/><rect x="40.68" y="64.68" width="6.64" height="6.64" rx="1.84"/><rect x="48.68" y="64.68" width="6.64" height="6.64" rx="1.84"/><rect x="56.68" y="64.68" width="6.64" height="6.64" rx="1.84"/><rect x="48.68" y="72.68" width="6.64" height="6.64" rx="1.84"/><rect x="32.68" y="80.68" width="6.64" height="6.64" rx="1.84"/><rect x="48.68" y="80.68" width="6.64" height="6.64" rx="1.84"/><rect x="64.68" y="80.68" width="6.64" height="6.64" rx="1.84"/><rect x="24.68" y="88.68" width="6.64" height="6.64" rx="1.84"/><rect x="32.68" y="88.68" width="6.64" height="6.64" rx="1.84"/><rect x="48.68" y="88.68" width="6.64" height="6.64" rx="1.84"/><rect x="64.68" y="88.68" width="6.64" height="6.64" rx="1.84"/><rect x="72.68" y="88.68" width="6.64" height="6.64" rx="1.84"/><rect x="16.68" y="96.68" width="6.64" height="6.64" rx="1.84"/><rect x="24.68" y="96.68" width="6.64" height="6.64" rx="1.84"/><rect x="48.68" y="96.68" width="6.64" height="6.64" rx="1.84"/><rect x="72.68" y="96.68" width="6.64" height="6.64" rx="1.84"/><rect x="80.68" y="96.68" width="6.64" height="6.64" rx="1.84"/><rect x="16.68" y="104.68" width="6.64" height="6.64" rx="1.84"/><rect x="48.68" y="104.68" width="6.64" height="6.64" rx="1.84"/><rect x="80.68" y="104.68" width="6.64" height="6.64" rx="1.84"/><rect x="48.68" y="112.68" width="6.64" height="6.64" rx="1.84"/><rect x="40.68" y="120.68" width="6.64" height="6.64" rx="1.84"/><rect x="48.68" y="120.68" width="6.64" height="6.64" rx="1.84"/><rect x="56.68" y="120.68" width="6.64" height="6.64" rx="1.84"/></g></pattern></defs><rect width="480" height="480" fill="#FF4D00"/><rect width="480" height="480" fill="url(#p)"/></svg>